<svg width="84" height="84" viewBox="0 0 84 84" fill="none" xmlns="http://www.w3.org/2000/svg">
<path fill-rule="evenodd" clip-rule="evenodd" d="M44.6713 12.1056C44.4082 11.6402 44.0412 11.2508 43.6027 10.9716C42.1272 10.0322 40.2135 10.5399 39.3282 12.1056L7.44399 68.4931C7.15347 69.0069 7 69.5949 7 70.194C7 72.0199 8.39489 73.5 10.1156 73.5H73.884C74.4486 73.5 75.0027 73.3372 75.4869 73.0289C76.9624 72.0895 77.4408 70.0588 76.5555 68.4931L44.6713 12.1056ZM42.0001 54.25C43.611 54.25 44.9168 52.9442 44.9168 51.3334L44.9168 30.9167C44.9168 29.3059 43.611 28 42.0001 28C40.3893 28 39.0835 29.3059 39.0835 30.9167L39.0835 51.3334C39.0835 52.9442 40.3893 54.25 42.0001 54.25ZM42.0001 65.9167C43.611 65.9167 44.9168 64.6109 44.9168 63C44.9168 61.3892 43.611 60.0834 42.0001 60.0834C40.3893 60.0834 39.0835 61.3892 39.0835 63C39.0835 64.6109 40.3893 65.9167 42.0001 65.9167Z" fill="#FFCB2A"/>
</svg>
