<svg width="24" height="24" viewBox="0 0 24 24" fill="none" xmlns="http://www.w3.org/2000/svg">
<g id="Facebook">
<path id="Icon" d="M21.7856 1H2.2056C1.53834 1.00484 1 1.54714 1 2.2144V21.7944C1.00484 22.4617 1.54692 23 2.2144 23H12.7522V14.4926H9.89218V11.1618H12.7522V8.711C12.7522 5.8708 14.488 4.322 17.0226 4.322C17.8777 4.31826 18.7329 4.36248 19.5832 4.454V7.424H17.8366C16.457 7.424 16.1888 8.084 16.1888 9.041V11.1618H19.48L19.04 14.4926H16.18V23H21.7856C22.4562 23 23 22.4562 23 21.7856V2.2056C22.9949 1.53834 22.4526 1 21.7856 1Z" fill="#260145"/>
</g>
</svg>
