<svg width="24" height="24" viewBox="0 0 24 24" fill="none" xmlns="http://www.w3.org/2000/svg">
<g id="Google">
<path id="Vector" fill-rule="evenodd" clip-rule="evenodd" d="M12.2175 10.4275V14.2005H18.4563C18.2029 15.8201 16.5696 18.9444 12.2175 18.9444C8.46235 18.9444 5.39861 15.8339 5.39861 12.0004C5.39861 8.16728 8.46235 5.05682 12.2175 5.05682C14.3532 5.05682 15.7843 5.96831 16.6012 6.75353L19.5878 3.87858C17.6714 2.08321 15.1879 0.999573 12.2192 0.999573C6.13877 0.999573 1.21875 5.9196 1.21875 12C1.21875 18.0804 6.13877 23.0004 12.2192 23.0004C18.5663 23.0004 22.7811 18.5359 22.7811 12.2529C22.7811 11.5311 22.7039 10.9813 22.6089 10.4312L12.2192 10.4267L12.2175 10.4275Z" fill="#260145"/>
</g>
</svg>
