<svg width="93" height="94" viewBox="0 0 93 94" fill="none" xmlns="http://www.w3.org/2000/svg">
<ellipse cx="46.1355" cy="46.9724" rx="35.8518" ry="35.8197" transform="rotate(180 46.1355 46.9724)" fill="url(#paint0_linear_120_34131)"/>
<g filter="url(#filter0_d_120_34131)">
<path fill-rule="evenodd" clip-rule="evenodd" d="M29.4341 29.7127L22.4053 33.7708L28.2488 43.892L28.2482 43.8923L28.8975 45.0169L28.8981 45.0166L45.6718 74.0696L52.7006 70.0115C51.7537 68.3714 50.366 64.7991 54.6396 62.3317C58.9131 59.8644 61.5706 62.4329 62.541 64.3301L69.851 60.1097L46.5845 19.8109L39.2745 24.0313C40.2845 25.7808 41.2924 29.8639 37.2438 32.2014C33.1952 34.5389 30.3504 31.5162 29.4341 29.7127ZM28.8981 45.0166L33.1148 42.5821L32.4655 41.4575L28.2488 43.892L28.8981 45.0166ZM42.4932 35.6679L38.1822 38.1569L38.8315 39.2815L43.1425 36.7925L42.4932 35.6679ZM33.2151 41.0246L37.4324 38.5897L38.0817 39.7143L33.8644 42.1492L33.2151 41.0246ZM47.4604 32.8002L43.2431 35.235L43.8924 36.3596L48.1097 33.9248L47.4604 32.8002ZM48.2101 32.3673L52.4274 29.9324L53.0767 31.057L48.8594 33.4919L48.2101 32.3673ZM51.705 53.3054L46.1794 43.7349L47.4404 42.6405L46.5097 41.0287L40.9964 44.2118L41.927 45.8237L43.5052 45.2789L49.0307 54.8494L47.7698 55.9437L48.6951 57.5464L54.2085 54.3633L53.2832 52.7606L51.705 53.3054Z" fill="#FDF5FF"/>
</g>
<defs>
<filter id="filter0_d_120_34131" x="18.8157" y="16.2213" width="55.9696" height="62.7824" filterUnits="userSpaceOnUse" color-interpolation-filters="sRGB">
<feFlood flood-opacity="0" result="BackgroundImageFix"/>
<feColorMatrix in="SourceAlpha" type="matrix" values="0 0 0 0 0 0 0 0 0 0 0 0 0 0 0 0 0 0 127 0" result="hardAlpha"/>
<feOffset dx="0.672298" dy="0.672298"/>
<feGaussianBlur stdDeviation="2.13095"/>
<feComposite in2="hardAlpha" operator="out"/>
<feColorMatrix type="matrix" values="0 0 0 0 0.376471 0 0 0 0 0.0117647 0 0 0 0 0.635294 0 0 0 1 0"/>
<feBlend mode="normal" in2="BackgroundImageFix" result="effect1_dropShadow_120_34131"/>
<feBlend mode="normal" in="SourceGraphic" in2="effect1_dropShadow_120_34131" result="shape"/>
</filter>
<linearGradient id="paint0_linear_120_34131" x1="46.1355" y1="11.1527" x2="46.1355" y2="82.7921" gradientUnits="userSpaceOnUse">
<stop stop-color="#6003A2"/>
<stop offset="1" stop-color="#260145"/>
</linearGradient>
</defs>
</svg>
