<svg width="24" height="24" viewBox="0 0 24 24" fill="none" xmlns="http://www.w3.org/2000/svg">
<g id="Instagram">
<path id="Icon" d="M12 1C9.01258 1 8.63794 1.01266 7.46471 1.0662C6.29385 1.1196 5.49426 1.30556 4.79454 1.57751C4.07123 1.85858 3.45775 2.2347 2.84623 2.84623C2.23466 3.45779 1.85858 4.07123 1.57746 4.79454C1.30552 5.49426 1.1196 6.29385 1.06615 7.46471C1.01262 8.63798 1 9.01254 1 12C1 14.9874 1.01262 15.362 1.06615 16.5353C1.1196 17.7061 1.30552 18.5057 1.57746 19.2054C1.85858 19.9287 2.23466 20.5422 2.84623 21.1537C3.45775 21.7653 4.07123 22.1414 4.79454 22.4225C5.49426 22.6944 6.29385 22.8804 7.46471 22.9338C8.63794 22.9873 9.01258 23 12 23C14.9874 23 15.362 22.9873 16.5352 22.9338C17.7061 22.8804 18.5057 22.6944 19.2054 22.4225C19.9288 22.1414 20.5422 21.7653 21.1537 21.1537C21.7653 20.5422 22.1414 19.9288 22.4225 19.2054C22.6944 18.5057 22.8804 17.7061 22.9338 16.5353C22.9873 15.362 23 14.9874 23 12C23 9.01258 22.9873 8.63798 22.9338 7.46471C22.8804 6.29385 22.6944 5.49426 22.4225 4.79454C22.1414 4.07123 21.7653 3.45779 21.1537 2.84623C20.5422 2.2347 19.9288 1.85858 19.2054 1.57751C18.5057 1.30556 17.7061 1.1196 16.5352 1.0662C15.362 1.01266 14.9874 1 12 1ZM12 2.98198L13.0765 2.9827C14.4964 2.98497 15.0994 2.99318 15.6991 3.01462L15.8999 3.02227C16.0691 3.02907 16.2449 3.03695 16.4449 3.04608C17.5174 3.09503 18.0998 3.27423 18.4874 3.42487C19.0009 3.62442 19.3674 3.86278 19.7523 4.24768C20.1372 4.63263 20.3755 4.99906 20.5751 5.51252C20.7257 5.90013 20.9049 6.48257 20.9539 7.55506C20.963 7.75504 20.9709 7.93089 20.9777 8.10003L20.9853 8.30089L20.992 8.50201C21.0085 9.04463 21.0152 9.66138 21.0173 10.9235V13.0765C21.0152 14.3386 21.0085 14.9554 20.992 15.498L20.9853 15.6991L20.9777 15.8999C20.9709 16.0691 20.963 16.2449 20.9539 16.4449C20.9049 17.5174 20.7257 18.0999 20.5751 18.4875C20.3755 19.0009 20.1372 19.3674 19.7523 19.7523C19.3674 20.1372 19.0009 20.3756 18.4874 20.5751C18.0998 20.7257 17.5174 20.905 16.4449 20.9539C15.4451 20.9995 15.0487 21.0141 13.0766 21.0173L12.2947 21.018C12.1995 21.018 12.1013 21.018 12 21.018L10.9234 21.0173C8.95122 21.0141 8.55482 20.9995 7.55506 20.9539C6.48257 20.905 5.90008 20.7257 5.51247 20.5751C4.99906 20.3756 4.63259 20.1372 4.24768 19.7523C3.86278 19.3674 3.62437 19.0009 3.42482 18.4875C3.27423 18.0999 3.09503 17.5174 3.04608 16.4449C3.03695 16.245 3.02907 16.0691 3.02227 15.9L3.01462 15.6991C2.99318 15.0995 2.98497 14.4964 2.9827 13.0765L2.98202 12.2947C2.98199 12.1995 2.98198 12.1013 2.98198 12L2.9827 10.9235C2.98497 9.50362 2.99318 8.90053 3.01462 8.30089L3.02227 8.10003C3.02907 7.93089 3.03695 7.75504 3.04608 7.55506C3.09503 6.48257 3.27423 5.90013 3.42482 5.51252C3.62437 4.99906 3.86278 4.63263 4.24768 4.24773C4.63259 3.86278 4.99906 3.62442 5.51247 3.42487C5.90008 3.27423 6.48257 3.09503 7.55501 3.04608C8.55497 3.00046 8.95142 2.98586 10.9235 2.9827L11.7052 2.98202C11.8005 2.98199 11.8987 2.98198 12 2.98198ZM12 6.35136C8.88032 6.35136 6.35131 8.88032 6.35131 12C6.35131 15.1197 8.88032 17.6486 12 17.6486C15.1196 17.6486 17.6486 15.1197 17.6486 12C17.6486 8.88032 15.1196 6.35136 12 6.35136ZM12 8.33333C14.025 8.33333 15.6667 9.97495 15.6667 12C15.6667 14.025 14.025 15.6667 12 15.6667C9.97495 15.6667 8.33329 14.025 8.33329 12C8.33329 9.97495 9.97495 8.33333 12 8.33333ZM17.8718 4.8082C17.1428 4.8082 16.5518 5.39915 16.5518 6.12818C16.5518 6.8572 17.1428 7.44816 17.8718 7.44816C18.6008 7.44816 19.1918 6.8572 19.1918 6.12818C19.1918 5.39915 18.6008 4.8082 17.8718 4.8082Z" fill="#260145"/>
</g>
</svg>
