<svg width="390" height="395" viewBox="0 0 390 395" fill="none" xmlns="http://www.w3.org/2000/svg">
<rect width="390" height="394.466" transform="translate(0 0.0913086)" fill="#13001F"/>
<ellipse cx="193.605" cy="195.961" rx="104.921" ry="104.827" transform="rotate(180 193.605 195.961)" fill="url(#paint0_linear_119_30538)"/>
<g filter="url(#filter0_d_119_30538)">
<path fill-rule="evenodd" clip-rule="evenodd" d="M144.728 145.451L124.158 157.327L141.26 186.948L141.259 186.948L143.159 190.239L143.16 190.239L192.248 275.262L212.818 263.386C210.047 258.586 205.986 248.132 218.492 240.911C230.999 233.69 238.776 241.207 241.616 246.759L263.009 234.408L194.919 116.473L173.526 128.824C176.482 133.944 179.432 145.893 167.583 152.734C155.735 159.575 147.41 150.729 144.728 145.451ZM143.16 190.239L155.501 183.114L153.601 179.822L141.26 186.948L143.16 190.239ZM182.948 162.879L170.331 170.163L172.232 173.454L184.848 166.17L182.948 162.879ZM155.795 178.555L168.137 171.43L170.038 174.721L157.696 181.847L155.795 178.555ZM197.484 154.487L185.142 161.612L187.043 164.903L199.385 157.778L197.484 154.487ZM199.678 153.22L212.02 146.094L213.921 149.385L201.579 156.511L199.678 153.22ZM210.249 215.093L194.079 187.085L197.769 183.882L195.045 179.165L178.911 188.48L181.634 193.197L186.253 191.603L202.423 219.611L198.733 222.814L201.441 227.504L217.576 218.189L214.868 213.498L210.249 215.093Z" fill="#FDF5FF"/>
</g>
<path d="M49.0152 177.132L66.3397 180.224L67.2956 177.743L70.1968 178.261L68.4157 188.241L65.5145 187.723L65.4757 185.065L48.1513 181.973L47.1954 184.454L44.2776 183.933L46.0587 173.953L48.9765 174.474L49.0152 177.132Z" fill="#FDF5FF"/>
<path d="M56.9005 162.721L69.5131 167.161L71.0353 164.359L73.8152 165.337L70.4433 174.916L67.6634 173.937L68.0536 171.307L51.454 165.464L50.1107 167.758L47.3149 166.774L49.8369 159.61L69.4259 155.187L69.4435 155.086L56.688 150.596L55.1714 153.382L52.3756 152.398L55.7476 142.82L58.5433 143.804L58.1475 146.45L78.0035 153.439L76.4266 157.919L56.9182 162.62L56.9005 162.721Z" fill="#FDF5FF"/>
<path d="M86.5502 138.786C85.2894 140.871 83.7822 142.387 82.0286 143.334C80.2751 144.28 78.3916 144.683 76.3781 144.541C74.3704 144.389 72.3531 143.701 70.3262 142.475L69.6057 142.039C67.5115 140.772 65.9024 139.268 64.7783 137.525C63.6543 135.782 63.0755 133.93 63.0421 131.968C63.0048 129.99 63.5759 128.027 64.7554 126.076C65.6676 124.568 66.7312 123.276 67.9461 122.2C69.161 121.125 70.4778 120.347 71.8966 119.866L76.551 122.681L74.6684 125.794L71.5012 124.685C70.948 124.862 70.3836 125.21 69.808 125.728C69.2227 126.24 68.6832 126.904 68.1893 127.72C67.4805 128.892 67.1778 130.087 67.2813 131.304C67.3848 132.521 67.8495 133.695 68.6753 134.824C69.507 135.944 70.6529 136.945 72.1131 137.828L72.8624 138.282C74.2649 139.13 75.6359 139.651 76.9753 139.844C78.2955 140.026 79.5071 139.867 80.6102 139.366C81.7095 138.85 82.6398 137.963 83.4009 136.704C83.8483 135.965 84.1907 135.247 84.4281 134.551C84.6616 133.839 84.7996 133.221 84.8419 132.695L81.2827 130.542L79.2393 133.4L76.2853 131.613L80.6518 124.394L89.1391 129.528C89.2383 130.86 89.0917 132.307 88.6991 133.867C88.3124 135.417 87.5961 137.057 86.5502 138.786Z" fill="#FDF5FF"/>
<path d="M107.916 111.376L103.91 115.791L94.2039 112.077L91.1937 115.395L95.8081 119.582L97.9476 117.976L100.13 119.956L93.3062 127.476L91.1237 125.496L92.5037 123.223L79.4711 111.398L77.3429 112.991L75.1479 111L82.9563 102.394C84.2313 100.989 85.5339 99.9881 86.864 99.391C88.2016 98.7856 89.5151 98.5827 90.8045 98.7824C92.1013 98.9738 93.3151 99.5825 94.4458 100.609C95.5101 101.574 96.2206 102.704 96.5775 103.998C96.9344 105.292 96.924 106.632 96.5461 108.017L96.5371 108.077L103.968 110.614L105.733 109.395L107.916 111.376ZM85.7624 104.94L83.0125 107.971L88.3876 112.848L91.081 109.88C92.9746 107.793 93.0526 105.962 91.3149 104.385C90.4751 103.623 89.572 103.273 88.6054 103.336C87.6305 103.391 86.6828 103.926 85.7624 104.94Z" fill="#FDF5FF"/>
<path d="M120.532 96.8276L118.945 94.3551L121.931 92.1063L125.963 97.4605L110.465 109.13L108.692 106.776L110.474 104.802L99.8877 90.7441L97.4986 91.9107L95.7157 89.543L110.917 78.096L114.899 83.383L111.885 85.6521L110.008 83.5237L104.008 88.0417L107.716 92.9655L114.348 87.9714L116.628 90.9982L109.995 95.9924L114.209 101.589L120.532 96.8276Z" fill="#FDF5FF"/>
<path d="M138.447 91.1177C136.834 91.9331 135.275 92.4948 133.77 92.8026C132.265 93.1104 130.646 93.1426 128.913 92.8992L126.239 87.6088L129.635 85.8919L131.674 88.7675C132.317 88.9203 133.095 88.9169 134.008 88.7572C134.916 88.5876 135.836 88.2672 136.768 87.7962C137.57 87.391 138.185 86.9415 138.615 86.4476C139.499 85.4345 139.655 84.3619 139.083 83.2296C138.814 82.6986 138.454 82.296 138.001 82.0218C137.115 81.4885 135.548 81.4125 133.3 81.7939C131.263 82.1693 129.547 82.3325 128.151 82.2834C126.705 82.2596 125.483 81.9712 124.487 81.4182C123.495 80.8502 122.698 79.97 122.095 78.7777C121.498 77.5954 121.299 76.3812 121.5 75.1351C121.695 73.9042 122.242 72.7344 123.141 71.6259C124.04 70.5174 125.246 69.5682 126.759 68.7783L126.984 68.6643C128.587 67.854 130.106 67.3377 131.541 67.1155C133.037 66.8881 134.45 66.9095 135.782 67.1798L138.274 72.1095L134.982 73.7732L132.892 71.056C132.389 71.008 131.767 71.0584 131.024 71.2073C130.292 71.3511 129.515 71.6306 128.693 72.0459C127.992 72.4005 127.429 72.8172 127.004 73.296C126.57 73.7799 126.298 74.3008 126.19 74.8585C126.082 75.4163 126.173 75.9808 126.461 76.5519C126.709 77.0429 127.06 77.4003 127.513 77.6243C128.358 78.0524 130.043 78.0751 132.567 77.6925C135.321 77.1432 137.598 77.1057 139.397 77.5798C141.207 78.0489 142.565 79.1801 143.471 80.9736C144.104 82.2261 144.311 83.4678 144.09 84.6989C143.88 85.95 143.292 87.1275 142.328 88.2313C141.364 89.3351 140.07 90.2972 138.447 91.1177Z" fill="#FDF5FF"/>
<path d="M159.033 82.9394C157.304 83.465 155.671 83.75 154.136 83.7942C152.6 83.8385 151 83.5915 149.335 83.0534L147.611 77.3818L151.252 76.275L152.765 79.4585C153.373 79.7198 154.14 79.8504 155.067 79.8502C155.991 79.8394 156.952 79.6821 157.951 79.3785C158.81 79.1173 159.494 78.7804 160.002 78.3678C161.048 77.5221 161.386 76.4923 161.017 75.2784C160.844 74.7091 160.558 74.2505 160.159 73.9024C159.378 73.2245 157.847 72.88 155.568 72.8689C153.497 72.8882 151.778 72.7535 150.411 72.4649C148.991 72.1925 147.837 71.6983 146.951 70.9821C146.071 70.2518 145.438 69.2476 145.049 67.9693C144.664 66.7018 144.677 65.4716 145.089 64.2786C145.493 63.0996 146.234 62.0415 147.31 61.1042C148.386 60.1669 149.738 59.4394 151.364 58.9217L151.606 58.8482C153.324 58.3259 154.909 58.0787 156.361 58.1069C157.873 58.1401 159.262 58.4045 160.527 58.9L162.134 64.1849L158.605 65.2574L157.013 62.2209C156.527 62.0872 155.905 62.0298 155.148 62.0486C154.402 62.0642 153.588 62.2059 152.707 62.4736C151.955 62.7021 151.329 63.0157 150.828 63.4143C150.317 63.8162 149.96 64.2825 149.758 64.8134C149.555 65.3443 149.547 65.9159 149.733 66.5281C149.893 67.0545 150.177 67.4669 150.584 67.7655C151.343 68.3327 152.999 68.645 155.551 68.7025C158.358 68.6354 160.608 68.9902 162.299 69.767C164.001 70.5405 165.144 71.8886 165.728 73.8114C166.136 75.1541 166.126 76.4128 165.697 77.5876C165.274 78.7838 164.493 79.8426 163.353 80.764C162.213 81.6854 160.773 82.4105 159.033 82.9394Z" fill="#FDF5FF"/>
<path d="M181.959 78.2854C180.318 78.4646 178.789 78.321 177.372 77.8547C175.954 77.3884 174.699 76.6502 173.606 75.6402C172.503 74.6426 171.608 73.4247 170.92 71.9864C170.231 70.5371 169.789 68.9195 169.594 67.1338L169.554 66.7655C169.36 64.991 169.443 63.3274 169.805 61.7746C170.165 60.2106 170.769 58.8176 171.618 57.5954C172.467 56.3733 173.533 55.3816 174.817 54.6203C176.1 53.859 177.562 53.3887 179.203 53.2095C180.855 53.0291 182.395 53.1714 183.823 53.6366C185.252 54.1017 186.518 54.8386 187.622 55.8474C188.726 56.8562 189.623 58.0853 190.312 59.5346C191.011 60.9716 191.458 62.5774 191.651 64.3519L191.692 64.7202C191.887 66.5059 191.799 68.1813 191.427 69.7465C191.066 71.2993 190.455 72.6818 189.594 73.894C188.733 75.1173 187.656 76.1102 186.361 76.8728C185.078 77.6341 183.61 78.105 181.959 78.2854ZM181.544 74.4852C182.927 74.3341 184.038 73.8514 184.875 73.0371C185.712 72.2229 186.29 71.1491 186.607 69.8156C186.936 68.481 187.007 66.9599 186.82 65.2523L186.776 64.8505C186.592 63.1653 186.196 61.7065 185.587 60.4743C184.979 59.2532 184.173 58.3361 183.169 57.723C182.175 57.1087 180.992 56.8765 179.62 57.0264C178.258 57.1751 177.164 57.6504 176.337 58.4523C175.511 59.2653 174.938 60.3329 174.62 61.6552C174.312 62.9763 174.252 64.4906 174.438 66.1981L174.482 66.5999C174.666 68.2852 175.058 69.7557 175.658 71.0115C176.256 72.245 177.046 73.1695 178.028 73.785C179.01 74.4005 180.182 74.6339 181.544 74.4852Z" fill="#FDF5FF"/>
<path d="M217.942 72.2897L216.23 75.3838L217.839 76.012L217.266 78.9027L209.073 77.2782L209.646 74.3874L211.413 74.4802L223.208 55.084L228.147 56.0633L231.599 78.4827L233.268 79.0711L232.694 81.9619L224.501 80.3373L225.074 77.4465L226.802 77.48L226.399 73.9666L217.942 72.2897ZM224.79 61.3894L224.703 60.6168L224.604 60.5971L224.202 61.3244L219.786 68.9641L225.964 70.1891L224.79 61.3894Z" fill="#FDF5FF"/>
<path d="M252.942 88.184L256.482 93.2123L252.923 95.3994L248.374 88.3899C247.936 88.3019 247.499 88.1962 247.064 88.0728C246.639 87.9538 246.224 87.8089 245.821 87.6382C244.301 86.9948 243.031 86.1218 242.011 85.0192C241 83.9209 240.262 82.6697 239.796 81.2653C239.33 79.861 239.149 78.3582 239.254 76.7567C239.359 75.1553 239.762 73.5275 240.462 71.8734L240.607 71.5322C241.303 69.8884 242.189 68.4715 243.266 67.2815C244.343 66.0915 245.55 65.17 246.887 64.5169C248.22 63.8742 249.632 63.5334 251.124 63.4944C252.615 63.4553 254.121 63.7576 255.641 64.401C257.171 65.0488 258.446 65.924 259.467 67.0266C260.487 68.1292 261.236 69.3849 261.712 70.7935C262.195 72.2169 262.384 73.7294 262.279 75.3308C262.174 76.9322 261.773 78.5548 261.077 80.1987L260.933 80.5398C260.101 82.5041 258.985 84.1469 257.584 85.468C256.194 86.7935 254.647 87.6989 252.942 88.184ZM247.312 84.1179C248.604 84.6651 249.814 84.7873 250.942 84.4845C252.08 84.1861 253.108 83.53 254.025 82.5162C254.952 81.5067 255.75 80.2111 256.42 78.6293L256.577 78.2571C257.238 76.696 257.603 75.229 257.673 73.8563C257.737 72.4938 257.481 71.3001 256.903 70.2752C256.335 69.2546 255.416 68.4751 254.144 67.9368C252.872 67.3984 251.68 67.2776 250.567 67.5744C249.449 67.8815 248.434 68.5368 247.522 69.5403C246.609 70.5439 245.818 71.8365 245.148 73.4183L244.991 73.7905C244.33 75.3516 243.955 76.8267 243.867 78.2158C243.787 79.5842 244.026 80.7765 244.584 81.7927C245.151 82.8132 246.061 83.5883 247.312 84.1179Z" fill="#FDF5FF"/>
<path d="M269.117 100.478C267.523 99.3683 266.315 98.1168 265.493 96.7236C264.662 95.324 264.276 93.8649 264.334 92.3463C264.393 90.8276 264.945 89.3174 265.991 87.8155L273.304 77.3119L271.45 75.4058L273.144 72.9734L281.478 78.7756L279.784 81.208L277.339 80.1216L270.026 90.6252C269.417 91.5005 269.065 92.3499 268.971 93.1733C268.801 94.7925 269.568 96.1955 271.273 97.3822C272.111 97.966 272.942 98.3253 273.764 98.4603C275.425 98.7274 276.865 97.9856 278.084 96.235L285.397 85.7314L283.543 83.8253L285.237 81.3929L293.571 87.1951L291.877 89.6276L289.432 88.5411L282.119 99.0447C281.067 100.556 279.843 101.598 278.445 102.171C277.035 102.762 275.529 102.911 273.928 102.617C272.333 102.314 270.73 101.601 269.117 100.478Z" fill="#FDF5FF"/>
<path d="M301.469 99.6755L289.255 112.345L290.783 114.52L288.738 116.642L281.439 109.606L283.485 107.484L285.714 108.932L297.929 96.2626L296.4 94.0872L298.457 91.9534L305.756 98.9897L303.698 101.123L301.469 99.6755Z" fill="#FDF5FF"/>
<path d="M311.861 111.147L298.404 122.487L299.699 124.809L297.446 126.708L290.913 118.955L293.167 117.056L295.235 118.727L308.693 107.387L307.397 105.065L309.664 103.155L316.196 110.908L313.93 112.818L311.861 111.147Z" fill="#FDF5FF"/>
<mask id="mask0_119_30538" style="mask-type:alpha" maskUnits="userSpaceOnUse" x="57" y="60" width="273" height="272">
<circle cx="193.512" cy="196.044" r="134.483" stroke="#C3AAD1" stroke-width="2.81541"/>
</mask>
<g mask="url(#mask0_119_30538)">
<rect x="9.77344" y="212.482" width="407.671" height="126.891" transform="rotate(-14.7646 9.77344 212.482)" fill="#C3AAD1"/>
</g>
<path d="M141.842 316.628C141.575 317.303 141.48 317.957 141.556 318.589C141.646 319.226 141.877 319.796 142.247 320.3C142.637 320.796 143.149 321.168 143.782 321.418C144.303 321.623 144.819 321.737 145.33 321.76C145.861 321.775 146.349 321.715 146.792 321.58C147.241 321.432 147.596 321.231 147.859 320.977L147.027 323.088C146.533 323.349 145.926 323.467 145.204 323.442C144.501 323.409 143.819 323.262 143.158 323.001C142.215 322.629 141.45 322.075 140.862 321.339C140.274 320.603 139.905 319.767 139.754 318.829C139.623 317.883 139.749 316.924 140.132 315.953C140.52 314.968 141.083 314.182 141.819 313.594C142.569 313.012 143.41 312.652 144.342 312.516C145.274 312.379 146.211 312.497 147.154 312.869C147.816 313.129 148.411 313.495 148.942 313.964C149.492 314.425 149.858 314.919 150.04 315.446L149.208 317.557C149.195 317.178 149.072 316.788 148.84 316.387C148.608 315.987 148.29 315.618 147.886 315.28C147.503 314.933 147.05 314.657 146.53 314.452C145.896 314.202 145.268 314.125 144.645 314.221C144.036 314.322 143.478 314.582 142.972 315C142.485 315.41 142.108 315.952 141.842 316.628Z" fill="#C3AAD1"/>
<path d="M154.47 311.174C154.577 310.843 154.783 310.6 155.088 310.444C155.407 310.293 155.725 310.268 156.042 310.371C156.373 310.478 156.616 310.684 156.772 310.988C156.928 311.293 156.952 311.611 156.845 311.942C156.743 312.259 156.537 312.502 156.228 312.673C155.923 312.828 155.605 312.853 155.274 312.746C154.957 312.643 154.714 312.438 154.543 312.128C154.392 311.809 154.368 311.491 154.47 311.174ZM153.468 315.382L155.196 315.94L151.985 325.873L150.258 325.314L153.468 315.382Z" fill="#C3AAD1"/>
<path d="M164.224 322.659C164.433 321.823 164.408 321.146 164.148 320.628C163.888 320.111 163.405 319.764 162.701 319.587C162.187 319.459 161.705 319.455 161.254 319.575C160.821 319.685 160.446 319.903 160.13 320.229C159.829 320.56 159.616 320.974 159.491 321.473L157.946 327.636L156.185 327.195L158.724 317.069L160.484 317.511L160.087 319.096C160.579 318.564 161.111 318.214 161.684 318.046C162.271 317.881 162.895 317.881 163.555 318.047C164.626 318.315 165.38 318.886 165.816 319.76C166.27 320.622 166.345 321.663 166.04 322.881L164.439 329.264L162.678 328.822L164.224 322.659Z" fill="#C3AAD1"/>
<path d="M172.426 330.948C171.47 330.795 170.654 330.435 169.979 329.868C169.32 329.288 168.847 328.561 168.557 327.688C168.282 326.817 168.23 325.851 168.399 324.79C168.57 323.715 168.93 322.807 169.477 322.067C170.038 321.329 170.736 320.797 171.57 320.471C172.418 320.146 173.35 320.065 174.366 320.227C175.382 320.389 176.214 320.744 176.862 321.292C177.527 321.827 177.991 322.521 178.253 323.375C178.515 324.229 178.559 325.201 178.385 326.291C178.368 326.396 178.343 326.507 178.309 326.624C178.292 326.728 178.282 326.796 178.277 326.826L169.47 325.421L169.713 323.897L177.108 325.077L176.227 325.993C176.283 325.925 176.346 325.821 176.415 325.678C176.486 325.521 176.53 325.39 176.546 325.286C176.644 324.673 176.602 324.123 176.419 323.634C176.252 323.148 175.971 322.743 175.579 322.42C175.186 322.097 174.698 321.889 174.116 321.796C173.428 321.686 172.814 321.741 172.274 321.962C171.751 322.169 171.31 322.528 170.953 323.038C170.613 323.535 170.373 324.178 170.232 324.968C170.103 325.775 170.12 326.482 170.284 327.09C170.447 327.698 170.752 328.191 171.197 328.569C171.642 328.946 172.216 329.191 172.918 329.303C173.62 329.415 174.264 329.364 174.85 329.151C175.437 328.923 175.968 328.525 176.442 327.958L177.752 329.109C177.076 329.889 176.291 330.438 175.398 330.755C174.522 331.06 173.532 331.124 172.426 330.948Z" fill="#C3AAD1"/>
<path d="M195.371 326.135L195.041 332.707L193.228 332.616L193.547 326.27C193.592 325.379 193.458 324.713 193.147 324.274C192.851 323.835 192.363 323.598 191.683 323.564C191.185 323.539 190.749 323.623 190.376 323.816C190.003 323.994 189.709 324.275 189.493 324.658C189.276 325.041 189.155 325.504 189.127 326.048L188.809 332.394L186.995 332.303L187.314 325.957C187.359 325.066 187.226 324.4 186.915 323.96C186.619 323.521 186.131 323.285 185.451 323.251C184.952 323.226 184.516 323.31 184.143 323.503C183.771 323.681 183.476 323.962 183.26 324.345C183.044 324.728 182.922 325.191 182.895 325.735L182.576 332.081L180.763 331.99L181.287 321.565L183.1 321.656L183.024 323.174C183.37 322.601 183.785 322.182 184.268 321.919C184.766 321.656 185.34 321.541 185.99 321.574C186.715 321.61 187.326 321.815 187.822 322.188C188.334 322.547 188.695 323.043 188.906 323.674C189.301 323.043 189.779 322.582 190.339 322.292C190.899 321.987 191.527 321.852 192.222 321.887C192.932 321.923 193.529 322.112 194.011 322.454C194.494 322.796 194.848 323.284 195.074 323.916C195.315 324.534 195.415 325.274 195.371 326.135Z" fill="#C3AAD1"/>
<path d="M199.857 329.261C199.878 329.654 199.988 329.989 200.185 330.266C200.397 330.542 200.673 330.746 201.014 330.879C201.369 330.996 201.765 331.042 202.203 331.018C202.762 330.987 203.255 330.846 203.68 330.596C204.121 330.344 204.458 330.007 204.693 329.585C204.941 329.147 205.05 328.657 205.021 328.113L205.458 329.452C205.495 330.117 205.321 330.679 204.937 331.14C204.569 331.6 204.096 331.951 203.518 332.195C202.956 332.439 202.388 332.576 201.814 332.608C201.179 332.642 200.576 332.547 200.003 332.321C199.444 332.079 198.985 331.718 198.625 331.238C198.265 330.758 198.066 330.163 198.026 329.453C197.971 328.441 198.281 327.613 198.958 326.97C199.649 326.31 200.636 325.945 201.92 325.875C202.675 325.833 203.307 325.889 203.816 326.043C204.338 326.181 204.757 326.355 205.072 326.564C205.385 326.759 205.599 326.922 205.712 327.052L205.771 328.117C205.222 327.783 204.664 327.557 204.097 327.436C203.529 327.301 202.928 327.251 202.293 327.286C201.704 327.318 201.225 327.42 200.856 327.592C200.501 327.763 200.241 327.99 200.075 328.272C199.909 328.554 199.836 328.883 199.857 329.261ZM199.32 324.472L198.363 323.184C198.74 322.876 199.26 322.559 199.924 322.235C200.603 321.909 201.426 321.72 202.393 321.667C203.208 321.622 203.925 321.711 204.544 321.935C205.176 322.142 205.672 322.471 206.03 322.921C206.403 323.37 206.608 323.934 206.646 324.614L207.058 332.091L205.245 332.191L204.847 324.963C204.827 324.601 204.75 324.31 204.617 324.09C204.483 323.855 204.299 323.675 204.065 323.552C203.846 323.428 203.591 323.343 203.301 323.299C203.01 323.254 202.707 323.24 202.389 323.258C201.876 323.286 201.411 323.372 200.995 323.517C200.593 323.66 200.254 323.823 199.976 324.005C199.698 324.186 199.48 324.342 199.32 324.472Z" fill="#C3AAD1"/>
<path d="M220.821 335.31L219.04 335.663L216.048 320.525L217.829 320.173L220.821 335.31ZM227.412 323.599C227.629 324.697 227.586 325.692 227.285 326.585C226.983 327.477 226.489 328.215 225.802 328.797C225.13 329.377 224.327 329.76 223.392 329.945C222.546 330.112 221.754 330.045 221.016 329.744C220.293 329.439 219.667 328.923 219.137 328.195C218.622 327.464 218.257 326.549 218.04 325.451C217.82 324.338 217.81 323.353 218.011 322.496C218.223 321.621 218.606 320.906 219.159 320.349C219.727 319.79 220.434 319.426 221.28 319.259C222.215 319.074 223.103 319.122 223.945 319.403C224.802 319.681 225.54 320.175 226.158 320.886C226.774 321.581 227.192 322.486 227.412 323.599ZM225.608 323.955C225.453 323.169 225.158 322.533 224.723 322.048C224.302 321.561 223.797 321.229 223.207 321.053C222.632 320.873 222.025 320.847 221.387 320.973C220.868 321.076 220.384 321.318 219.935 321.699C219.486 322.081 219.153 322.579 218.935 323.192C218.717 323.806 218.685 324.506 218.841 325.293C218.996 326.079 219.292 326.715 219.727 327.2C220.162 327.684 220.659 328.018 221.22 328.2C221.78 328.382 222.32 328.422 222.839 328.319C223.478 328.193 224.029 327.938 224.492 327.553C224.971 327.165 225.312 326.666 225.515 326.055C225.733 325.442 225.764 324.742 225.608 323.955Z" fill="#C3AAD1"/>
<path d="M231.376 324.564C231.486 324.941 231.668 325.243 231.923 325.468C232.192 325.689 232.508 325.825 232.869 325.878C233.242 325.911 233.638 325.866 234.059 325.744C234.597 325.587 235.045 325.339 235.402 324.998C235.775 324.653 236.027 324.249 236.16 323.785C236.303 323.302 236.298 322.799 236.146 322.276L236.875 323.482C237.061 324.121 237.02 324.708 236.75 325.244C236.495 325.775 236.114 326.225 235.607 326.593C235.114 326.957 234.592 327.22 234.04 327.38C233.43 327.558 232.82 327.602 232.211 327.511C231.612 327.402 231.083 327.154 230.623 326.768C230.164 326.382 229.835 325.847 229.637 325.165C229.353 324.191 229.468 323.315 229.982 322.535C230.505 321.737 231.385 321.158 232.619 320.798C233.345 320.587 233.974 320.498 234.504 320.533C235.044 320.549 235.491 320.623 235.845 320.757C236.195 320.875 236.44 320.985 236.579 321.086L236.878 322.11C236.268 321.91 235.673 321.815 235.093 321.827C234.509 321.823 233.912 321.91 233.302 322.088C232.736 322.253 232.292 322.461 231.971 322.712C231.665 322.959 231.463 323.238 231.365 323.551C231.266 323.863 231.27 324.2 231.376 324.564ZM229.769 320.021L228.545 318.983C228.843 318.597 229.278 318.171 229.851 317.704C230.439 317.234 231.198 316.863 232.127 316.593C232.911 316.364 233.63 316.289 234.283 316.366C234.946 316.425 235.503 316.634 235.954 316.991C236.419 317.344 236.747 317.847 236.937 318.501L239.031 325.69L237.288 326.198L235.264 319.248C235.162 318.899 235.022 318.633 234.842 318.449C234.658 318.25 234.438 318.117 234.182 318.05C233.941 317.979 233.674 317.954 233.381 317.976C233.088 317.999 232.789 318.054 232.484 318.143C231.99 318.287 231.557 318.476 231.184 318.711C230.826 318.941 230.532 319.176 230.302 319.417C230.073 319.657 229.895 319.858 229.769 320.021Z" fill="#C3AAD1"/>
<path d="M240.676 314.028L244.289 323.822L242.586 324.45L238.973 314.657L240.676 314.028ZM244.326 314.81C244.036 314.724 243.786 314.679 243.575 314.676C243.36 314.659 243.11 314.703 242.826 314.807C242.4 314.965 242.106 315.194 241.943 315.496C241.78 315.798 241.717 316.152 241.754 316.557C241.805 316.958 241.917 317.392 242.09 317.861L241.323 318.143C241.035 317.363 240.916 316.625 240.966 315.929C241.025 315.214 241.209 314.598 241.518 314.081C241.827 313.564 242.208 313.221 242.663 313.054C243.017 312.923 243.362 312.852 243.697 312.841C244.04 312.811 244.39 312.884 244.745 313.059L244.326 314.81Z" fill="#C3AAD1"/>
<path d="M249.884 318.179C250.046 318.538 250.269 318.811 250.552 318.998C250.85 319.18 251.181 319.271 251.547 319.272C251.92 319.253 252.307 319.154 252.706 318.973C253.217 318.743 253.625 318.435 253.932 318.047C254.252 317.654 254.446 317.218 254.513 316.74C254.587 316.242 254.512 315.745 254.288 315.248L255.179 316.34C255.452 316.947 255.493 317.535 255.301 318.102C255.123 318.664 254.808 319.163 254.357 319.598C253.92 320.027 253.44 320.36 252.915 320.596C252.336 320.858 251.739 320.986 251.123 320.981C250.514 320.957 249.956 320.786 249.447 320.467C248.939 320.149 248.538 319.666 248.246 319.017C247.83 318.093 247.821 317.209 248.221 316.366C248.628 315.502 249.417 314.806 250.59 314.277C251.279 313.966 251.889 313.791 252.419 313.751C252.956 313.692 253.409 313.703 253.778 313.786C254.141 313.854 254.399 313.929 254.551 314.01L254.99 314.982C254.358 314.869 253.755 314.858 253.183 314.95C252.604 315.028 252.025 315.198 251.446 315.459C250.908 315.702 250.498 315.97 250.215 316.263C249.947 316.55 249.785 316.855 249.732 317.178C249.678 317.501 249.729 317.835 249.884 318.179ZM247.659 313.905L246.302 313.049C246.543 312.625 246.914 312.142 247.417 311.6C247.933 311.052 248.633 310.579 249.515 310.182C250.26 309.846 250.961 309.671 251.618 309.657C252.283 309.622 252.864 309.751 253.36 310.041C253.87 310.326 254.265 310.779 254.544 311.399L257.622 318.226L255.967 318.972L252.992 312.373C252.843 312.042 252.666 311.798 252.463 311.641C252.253 311.47 252.017 311.369 251.754 311.338C251.505 311.301 251.237 311.314 250.95 311.377C250.663 311.44 250.375 311.536 250.085 311.667C249.616 311.878 249.214 312.126 248.877 312.411C248.555 312.689 248.296 312.963 248.103 313.233C247.909 313.502 247.761 313.727 247.659 313.905Z" fill="#C3AAD1"/>
<path d="M260.744 304.756L265.228 302.085L266.099 303.548L261.615 306.219L260.744 304.756ZM260.348 300.766L261.908 299.837L269.108 311.924L267.548 312.853L260.348 300.766Z" fill="#C3AAD1"/>
<path d="M268.986 305.984C268.385 305.112 268.045 304.207 267.967 303.269C267.901 302.321 268.071 301.423 268.477 300.573C268.883 299.723 269.503 299.01 270.337 298.434C271.183 297.849 272.07 297.522 272.996 297.453C273.935 297.375 274.829 297.538 275.679 297.944C276.542 298.342 277.274 298.976 277.875 299.847C278.468 300.706 278.802 301.616 278.876 302.576C278.954 303.514 278.791 304.409 278.385 305.259C277.991 306.1 277.371 306.813 276.525 307.398C275.691 307.973 274.804 308.3 273.866 308.379C272.927 308.457 272.026 308.297 271.164 307.9C270.305 307.482 269.579 306.843 268.986 305.984ZM270.499 304.94C270.911 305.537 271.401 305.98 271.968 306.269C272.548 306.549 273.15 306.676 273.775 306.649C274.403 306.601 274.998 306.384 275.558 305.997C276.118 305.61 276.526 305.136 276.781 304.573C277.04 303.99 277.135 303.382 277.066 302.75C277.01 302.109 276.775 301.489 276.363 300.892C275.95 300.294 275.454 299.855 274.875 299.575C274.299 299.274 273.697 299.147 273.068 299.195C272.452 299.235 271.864 299.448 271.304 299.834C270.743 300.221 270.329 300.7 270.062 301.271C269.807 301.833 269.711 302.441 269.777 303.094C269.846 303.727 270.086 304.342 270.499 304.94Z" fill="#C3AAD1"/>
<path d="M277.986 283.599L279.378 282.433L290.746 295.999L289.355 297.165L277.986 283.599ZM279.306 298.776C278.577 297.906 278.135 297.014 277.98 296.098C277.814 295.17 277.892 294.286 278.214 293.444C278.535 292.603 279.055 291.881 279.774 291.279C280.446 290.715 281.173 290.392 281.953 290.311C282.733 290.229 283.525 290.385 284.328 290.778C285.133 291.15 285.9 291.77 286.628 292.64C287.348 293.498 287.824 294.361 288.059 295.231C288.306 296.09 288.32 296.897 288.104 297.651C287.887 298.405 287.442 299.064 286.77 299.627C286.051 300.23 285.249 300.615 284.364 300.784C283.479 300.953 282.595 300.875 281.711 300.55C280.827 300.225 280.025 299.634 279.306 298.776ZM280.715 297.595C281.23 298.21 281.789 298.63 282.392 298.855C283.007 299.07 283.615 299.113 284.217 298.983C284.819 298.854 285.363 298.585 285.85 298.177C286.256 297.837 286.564 297.391 286.774 296.841C286.983 296.29 287.036 295.693 286.931 295.051C286.827 294.408 286.517 293.779 286.002 293.165C285.487 292.55 284.923 292.135 284.308 291.92C283.693 291.705 283.097 291.652 282.518 291.762C281.939 291.872 281.447 292.097 281.041 292.437C280.554 292.845 280.194 293.334 279.961 293.905C279.728 294.475 279.664 295.081 279.768 295.724C279.884 296.357 280.2 296.981 280.715 297.595Z" fill="#C3AAD1"/>
<path d="M289.313 290.266C288.56 289.522 288.058 288.695 287.807 287.787C287.567 286.869 287.567 285.954 287.809 285.043C288.05 284.133 288.527 283.317 289.24 282.597C289.963 281.865 290.774 281.38 291.671 281.14C292.579 280.889 293.488 280.884 294.399 281.125C295.32 281.355 296.157 281.843 296.91 282.588C297.652 283.322 298.148 284.154 298.399 285.083C298.65 285.991 298.655 286.9 298.414 287.811C298.183 288.711 297.706 289.526 296.983 290.258C296.27 290.978 295.459 291.464 294.551 291.715C293.643 291.966 292.729 291.976 291.808 291.745C290.886 291.494 290.055 291.001 289.313 290.266ZM290.605 288.96C291.122 289.47 291.685 289.815 292.296 289.994C292.917 290.162 293.532 290.174 294.141 290.032C294.75 289.868 295.294 289.544 295.773 289.061C296.252 288.577 296.564 288.035 296.711 287.435C296.857 286.814 296.838 286.199 296.653 285.59C296.478 284.97 296.133 284.405 295.617 283.895C295.101 283.384 294.532 283.045 293.911 282.877C293.289 282.687 292.674 282.675 292.065 282.838C291.467 282.991 290.928 283.31 290.449 283.794C289.971 284.278 289.653 284.825 289.495 285.436C289.349 286.035 289.368 286.65 289.553 287.281C289.739 287.889 290.089 288.449 290.605 288.96Z" fill="#C3AAD1"/>
<path d="M300.51 281.465C300.89 281.507 301.271 281.512 301.655 281.479C302.039 281.446 302.406 281.351 302.758 281.192C303.107 281.011 303.419 280.759 303.691 280.435C304.023 280.042 304.194 279.662 304.206 279.296C304.216 278.909 304.064 278.584 303.752 278.32C303.474 278.087 303.165 277.984 302.824 278.013C302.481 278.021 302.129 278.11 301.768 278.281C301.395 278.442 301.019 278.63 300.64 278.845C300.209 279.075 299.75 279.291 299.263 279.494C298.773 279.676 298.276 279.761 297.771 279.751C297.263 279.719 296.778 279.508 296.315 279.118C295.841 278.719 295.55 278.266 295.442 277.76C295.344 277.242 295.386 276.723 295.566 276.203C295.757 275.672 296.033 275.192 296.393 274.764C296.754 274.335 297.16 273.995 297.61 273.741C298.071 273.476 298.538 273.297 299.013 273.202C299.489 273.108 299.945 273.107 300.382 273.198L300.158 274.908C299.672 274.875 299.189 274.943 298.71 275.113C298.241 275.271 297.83 275.558 297.479 275.975C297.236 276.264 297.09 276.567 297.042 276.882C296.994 277.198 297.103 277.467 297.369 277.692C297.577 277.867 297.83 277.942 298.129 277.916C298.427 277.891 298.747 277.804 299.089 277.657C299.431 277.51 299.776 277.346 300.126 277.165C300.701 276.859 301.259 276.607 301.801 276.41C302.33 276.204 302.838 276.117 303.324 276.151C303.82 276.173 304.305 276.383 304.78 276.783C305.474 277.368 305.838 278.109 305.872 279.008C305.916 279.896 305.592 280.75 304.9 281.572C304.452 282.104 303.955 282.506 303.409 282.779C302.852 283.041 302.296 283.196 301.742 283.243C301.197 283.279 300.705 283.241 300.266 283.128L300.51 281.465Z" fill="#C3AAD1"/>
<defs>
<filter id="filter0_d_119_30538" x="113.653" y="105.968" width="163.796" height="183.734" filterUnits="userSpaceOnUse" color-interpolation-filters="sRGB">
<feFlood flood-opacity="0" result="BackgroundImageFix"/>
<feColorMatrix in="SourceAlpha" type="matrix" values="0 0 0 0 0 0 0 0 0 0 0 0 0 0 0 0 0 0 127 0" result="hardAlpha"/>
<feOffset dx="1.96749" dy="1.96749"/>
<feGaussianBlur stdDeviation="6.23625"/>
<feComposite in2="hardAlpha" operator="out"/>
<feColorMatrix type="matrix" values="0 0 0 0 0.376471 0 0 0 0 0.0117647 0 0 0 0 0.635294 0 0 0 1 0"/>
<feBlend mode="normal" in2="BackgroundImageFix" result="effect1_dropShadow_119_30538"/>
<feBlend mode="normal" in="SourceGraphic" in2="effect1_dropShadow_119_30538" result="shape"/>
</filter>
<linearGradient id="paint0_linear_119_30538" x1="193.605" y1="91.1343" x2="193.605" y2="300.788" gradientUnits="userSpaceOnUse">
<stop stop-color="#6003A2"/>
<stop offset="1" stop-color="#260145"/>
</linearGradient>
</defs>
</svg>
