<svg width="24" height="24" viewBox="0 0 24 24" fill="none" xmlns="http://www.w3.org/2000/svg">
<g id="WhatsApp">
<path id="Icon" d="M12.0028 1H11.9972C5.93212 1 1 5.9335 1 12C1 14.4062 1.7755 16.6365 3.09413 18.4474L1.72325 22.5339L5.95138 21.1822C7.69075 22.3345 9.76562 23 12.0028 23C18.0679 23 23 18.0651 23 12C23 5.93488 18.0679 1 12.0028 1ZM18.4034 16.5334C18.138 17.2827 17.0847 17.9043 16.2446 18.0858C15.6699 18.2081 14.9191 18.3057 12.3919 17.258C9.15925 15.9187 7.0775 12.6339 6.91525 12.4207C6.75987 12.2076 5.609 10.6814 5.609 9.10287C5.609 7.52437 6.41062 6.75575 6.73375 6.42575C6.99913 6.15487 7.43775 6.03113 7.8585 6.03113C7.99463 6.03113 8.117 6.038 8.227 6.0435C8.55013 6.05725 8.71237 6.0765 8.9255 6.58663C9.19088 7.226 9.83713 8.8045 9.91413 8.96675C9.9925 9.129 10.0709 9.349 9.96087 9.56213C9.85775 9.78213 9.767 9.87975 9.60475 10.0667C9.4425 10.2537 9.2885 10.3967 9.12625 10.5975C8.97775 10.7721 8.81 10.9591 8.997 11.2823C9.184 11.5985 9.83025 12.6531 10.7817 13.5001C12.0096 14.5933 13.0051 14.9425 13.3612 15.091C13.6266 15.201 13.9429 15.1749 14.1368 14.9686C14.3829 14.7032 14.6868 14.2632 14.9961 13.8301C15.2161 13.5194 15.4939 13.4809 15.7854 13.5909C16.0824 13.694 17.654 14.4709 17.9771 14.6318C18.3003 14.794 18.5134 14.871 18.5917 15.0071C18.6687 15.1432 18.6688 15.7826 18.4034 16.5334Z" fill="#260145"/>
</g>
</svg>
